<svg width="33" height="33" viewBox="0 0 33 33" fill="none" xmlns="http://www.w3.org/2000/svg">
<g id="location_on_FILL0_wght400_GRAD0_opsz48 1">
<rect width="33" height="33" fill="white"/>
<path id="Vector" d="M16.5031 16.1562C17.1656 16.1562 17.7318 15.9203 18.2016 15.4485C18.6714 14.9767 18.9062 14.4095 18.9062 13.7469C18.9062 13.0844 18.6703 12.5182 18.1985 12.0484C17.7267 11.5786 17.1595 11.3437 16.4969 11.3437C15.8344 11.3437 15.2682 11.5797 14.7984 12.0515C14.3286 12.5233 14.0938 13.0905 14.0938 13.7531C14.0938 14.4156 14.3297 14.9818 14.8015 15.4516C15.2733 15.9214 15.8405 16.1562 16.5031 16.1562ZM16.5 27.5344C19.5479 24.7615 21.7995 22.2464 23.2547 19.9891C24.7099 17.7318 25.4375 15.7437 25.4375 14.025C25.4375 11.3256 24.5748 9.11539 22.8493 7.39423C21.1239 5.67308 19.0075 4.8125 16.5 4.8125C13.9925 4.8125 11.8761 5.67308 10.1507 7.39423C8.42522 9.11539 7.5625 11.3256 7.5625 14.025C7.5625 15.7437 8.30729 17.7318 9.79688 19.9891C11.2865 22.2464 13.5208 24.7615 16.5 27.5344ZM16.5 30.25C12.8104 27.1104 10.0547 24.1943 8.23281 21.5016C6.41094 18.8089 5.5 16.3167 5.5 14.025C5.5 10.5875 6.60573 7.84896 8.81719 5.80937C11.0286 3.76979 13.5896 2.75 16.5 2.75C19.4104 2.75 21.9714 3.76979 24.1828 5.80937C26.3943 7.84896 27.5 10.5875 27.5 14.025C27.5 16.3167 26.5891 18.8089 24.7672 21.5016C22.9453 24.1943 20.1896 27.1104 16.5 30.25Z" fill="black"/>
</g>
</svg>
